<?xml version="1.0" standalone="no"?>
<!DOCTYPE svg PUBLIC "-//W3C//DTD SVG 20010904//EN"
 "http://www.w3.org/TR/2001/REC-SVG-20010904/DTD/svg10.dtd">
<svg version="1.0" xmlns="http://www.w3.org/2000/svg"
 width="512.000000pt" height="512.000000pt" viewBox="0 0 512.000000 512.000000"
 preserveAspectRatio="xMidYMid meet">
<metadata>
Created by potrace 1.14, written by Peter Selinger 2001-2017
</metadata>
<g transform="translate(0.000000,512.000000) scale(0.100000,-0.100000)"
fill="#000000" stroke="none">
<path d="M550 2580 l0 -1110 263 2 262 3 3 132 3 132 -123 3 -123 3 -3 832 -2
832 122 3 123 3 0 135 0 135 -262 3 -263 2 0 -1110z"/>
<path d="M4094 3677 c-2 -7 -3 -69 -2 -138 l3 -124 118 -3 117 -3 0 -834 0
-835 -120 0 -121 0 3 -132 3 -133 263 -3 262 -2 0 1110 0 1110 -260 0 c-205 0
-262 -3 -266 -13z"/>
<path d="M1600 2660 l0 -920 175 0 175 0 2 363 3 362 125 6 c169 8 229 29 313
108 102 95 131 195 131 451 1 196 -10 263 -54 351 -47 92 -143 163 -251 188
-24 6 -173 11 -331 11 l-288 0 0 -920z m509 623 c55 -41 62 -72 59 -258 -4
-231 -23 -265 -150 -268 l-63 -2 -3 265 c-1 146 0 271 3 279 8 20 120 8 154
-16z"/>
<path d="M2690 2661 l0 -921 258 0 c272 0 347 7 440 42 77 29 160 112 190 190
50 134 57 454 12 572 -25 66 -81 132 -135 162 -19 10 -35 21 -35 24 0 3 20 17
44 31 88 54 134 210 123 414 -12 210 -77 314 -236 377 -53 21 -72 23 -358 26
l-303 3 0 -920z m499 625 c43 -23 54 -59 59 -186 6 -187 -21 -231 -148 -238
l-70 -4 0 221 0 221 65 0 c38 0 78 -6 94 -14z m1 -721 c55 -29 65 -62 68 -245
3 -196 -6 -243 -57 -277 -27 -18 -48 -23 -102 -23 l-69 0 0 278 c0 153 3 282
8 286 11 12 118 -2 152 -19z"/>
</g>
</svg>
